Coordinates
version=1
nRows=27
nColumns=12
inDegrees=yes

Units are S.I. units (second, meters, Newtons, ...)
Angles are in degrees

endheader
time	SC_y	SC_z	SC_x	AC_y	AC_z	AC_x	GH_y	GH_z	GH_yy	EL_x	PS_y
       0.0              -28.73          27.09          70.91          46.73         -5.364          3.833          140.6          78.07          -46.5           83.3          30.99
   0.03618              -28.74          27.08          70.91          46.73         -5.364          3.833          140.6          78.06         -46.51          83.31          30.99
   0.07236              -28.74          27.08          70.91          46.72         -5.364          3.832          140.6          78.04         -46.53          83.32           31.0
    0.1085              -28.74          27.08          70.91          46.72         -5.363          3.832          140.6          78.03         -46.55          83.32           31.0
    0.1447              -28.75          27.08          70.91          46.72         -5.363          3.832          140.6          78.01         -46.57          83.33          31.01
    0.1809              -28.75          27.08          70.91          46.72         -5.362          3.831          140.6          77.99         -46.59          83.34          31.02
    0.2171              -28.76          27.08          70.91          46.72         -5.362          3.831          140.6          77.98         -46.62          83.35          31.02
    0.2533              -28.76          27.08          70.91          46.71         -5.361          3.831          140.6          77.96         -46.64          83.36          31.03
    0.2895              -28.77          27.08          70.91          46.71         -5.361           3.83          140.6          77.93         -46.67          83.37          31.04
    0.3256              -28.77          27.07           70.9          46.71          -5.36           3.83          140.6          77.91          -46.7          83.38          31.05
    0.3618              -28.78          27.07           70.9          46.71         -5.359          3.829          140.6          77.89         -46.73          83.39          31.05
     0.398              -28.78          27.07           70.9           46.7         -5.358          3.829          140.6          77.86         -46.77           83.4          31.06
    0.4342              -28.79          27.07           70.9           46.7         -5.358          3.828          140.6          77.83          -46.8          83.41          31.07
    0.4704               -28.8          27.07           70.9           46.7         -5.357          3.827          140.5           77.8         -46.84          83.43          31.08
    0.5065              -28.81          27.06          70.89          46.69         -5.356          3.827          140.5          77.77         -46.89          83.44           31.1
    0.5427              -28.82          27.06          70.89          46.69         -5.355          3.826          140.5          77.74         -46.93          83.46          31.11
    0.5789              -28.83          27.06          70.89          46.68         -5.354          3.825          140.5           77.7         -46.98          83.48          31.12
    0.6151              -28.84          27.06          70.89          46.68         -5.352          3.824          140.5          77.66         -47.04           83.5          31.14
    0.6513              -28.85          27.05          70.88          46.67         -5.351          3.823          140.5          77.61          -47.1          83.52          31.16
    0.6875              -28.86          27.05          70.88          46.67         -5.349          3.822          140.5          77.56         -47.16          83.54          31.17
    0.7236              -28.88          27.04          70.88          46.66         -5.348          3.821          140.4           77.5         -47.23          83.57          31.19
    0.7598              -28.89          27.04          70.87          46.65         -5.346           3.82          140.4          77.44         -47.31           83.6          31.22
     0.796              -28.91          27.04          70.87          46.64         -5.344          3.818          140.4          77.38          -47.4          83.63          31.24
    0.8322              -28.93          27.03          70.86          46.63         -5.342          3.817          140.4           77.3          -47.5          83.66          31.27
    0.8684              -28.95          27.02          70.86          46.62         -5.339          3.815          140.3          77.22         -47.61           83.7           31.3
    0.9045              -28.97          27.02          70.85          46.61         -5.337          3.813          140.3          77.13         -47.73          83.74          31.33
    0.9407               -29.0          27.01          70.84           46.6         -5.334          3.811          140.3          77.03         -47.86          83.79          31.37
